<svg width="15" height="15" viewBox="0 0 15 15" fill="none" xmlns="http://www.w3.org/2000/svg">
<path d="M14.4076 8.88257L14.4066 8.88529L12.4238 13.9788C12.2311 14.3162 11.9049 14.5 11.5875 14.5H5.505C4.86058 14.5 4.25 13.8983 4.25 13.0583V6.525C4.25 6.2001 4.36619 5.89611 4.56415 5.67615L8.99613 0.751729C9.21794 1.00363 9.40106 1.29238 9.54971 1.61501C9.58084 1.68516 9.59163 1.77753 9.57514 1.85814L9.57498 1.8581L9.57274 1.87068L8.88274 5.74568L8.7781 6.33333H9.375H13.5C14.0006 6.33333 14.5 6.80862 14.5 7.5V8.4C14.5 8.56857 14.4676 8.73121 14.4076 8.88257ZM1.5 14.5H0.5V6.33333H1.5C1.58811 6.33333 1.75 6.43362 1.75 6.66667V14.1667C1.75 14.3997 1.58811 14.5 1.5 14.5Z" fill="white" stroke="black"/>
</svg>
