<svg width="15" height="15" viewBox="0 0 15 15" fill="none" xmlns="http://www.w3.org/2000/svg">
<path d="M10.6339 11.6248L10.9267 11.7788L11.1829 11.5695C11.5318 11.2846 11.988 11.1024 12.5 11.1024C13.6144 11.1024 14.4333 11.9115 14.4333 12.8012C14.4333 13.6909 13.6144 14.5 12.5 14.5C11.3856 14.5 10.5667 13.6909 10.5667 12.8012C10.5667 12.6851 10.5843 12.5626 10.6168 12.4391L10.718 12.055L10.3668 11.8696L4.43344 8.73706L4.1366 8.58034L3.87915 8.79574C3.51678 9.09893 3.03801 9.28916 2.5 9.28916C1.34393 9.28916 0.5 8.45751 0.5 7.53012C0.5 6.60273 1.34393 5.77108 2.5 5.77108C3.03801 5.77108 3.51678 5.96131 3.87915 6.2645L4.13634 6.47969L4.43304 6.3234L10.308 3.22852L10.6521 3.04727L10.5611 2.66919C10.5223 2.50773 10.5 2.38014 10.5 2.25904C10.5 1.33165 11.3439 0.5 12.5 0.5C13.6561 0.5 14.5 1.33165 14.5 2.25904C14.5 3.18642 13.6561 4.01807 12.5 4.01807C11.962 4.01807 11.4832 3.82784 11.1208 3.52465L10.8637 3.30947L10.567 3.46576L4.69196 6.56064L4.34791 6.74188L4.43887 7.11996C4.47772 7.28143 4.5 7.40902 4.5 7.53012C4.5 7.65122 4.47772 7.77881 4.43887 7.94028L4.34785 8.31862L4.69225 8.49976L10.6339 11.6248Z" fill="white" stroke="black"/>
</svg>
